<svg width="24.277832" height="22.000000" viewBox="0 0 24.2778 22" fill="none" xmlns="http://www.w3.org/2000/svg" xmlns:xlink="http://www.w3.org/1999/xlink">
	<desc>
			Created with Pixso.
	</desc>
	<defs>
		<clipPath id="clip7_3845">
			<rect width="24.277796" height="22.000000" fill="white" fill-opacity="0"/>
		</clipPath>
	</defs>
	<rect width="24.277796" height="22.000000" fill="#FFFFFF" fill-opacity="0"/>
	<g clip-path="url(#clip7_3845)">
		<path d="M23.4 4C27.77 4 31.31 6.96 31.31 11.11C31.31 19.42 20.52 24.16 16.93 25.94C13.33 24.16 2.55 19.42 2.55 11.11C2.55 6.96 6.14 4 10.46 4C13.13 4 15.49 5.18 16.93 6.37C18.37 5.18 20.72 4 23.4 4ZM18.27 22.51C19.54 21.85 20.68 21.19 21.75 20.49C26.04 17.68 28.43 14.61 28.43 11.11C28.43 8.31 26.22 6.37 23.4 6.37C21.85 6.37 20.18 7.04 18.96 8.05L16.93 9.72L14.89 8.05C13.68 7.04 12 6.37 10.46 6.37C7.67 6.37 5.42 8.33 5.42 11.11C5.42 14.61 7.82 17.68 12.1 20.49C13.17 21.19 14.32 21.85 15.58 22.51C16.01 22.73 16.44 22.95 16.93 23.19C17.41 22.95 17.84 22.73 18.27 22.51Z" fill="#FFFFFF" fill-opacity="1.000000" fill-rule="nonzero"/>
	</g>
</svg>
