<svg width="21.492676" height="20.000000" viewBox="0 0 21.4927 20" fill="none" xmlns="http://www.w3.org/2000/svg" xmlns:xlink="http://www.w3.org/1999/xlink">
	<desc>
			Created with Pixso.
	</desc>
	<defs>
		<clipPath id="clip7_3840">
			<rect width="21.492479" height="20.000000" transform="translate(0.000488 0.000000)" fill="white" fill-opacity="0"/>
		</clipPath>
	</defs>
	<rect width="21.492479" height="20.000000" transform="translate(0.000488 0.000000)" fill="#FFFFFF" fill-opacity="0"/>
	<g clip-path="url(#clip7_3840)">
		<path d="M10.74 9.16C11.63 9.16 12.49 8.92 13.23 8.46C13.97 8 14.54 7.35 14.88 6.59C15.22 5.83 15.31 4.99 15.13 4.18C14.96 3.37 14.53 2.63 13.91 2.05C13.28 1.47 12.48 1.07 11.62 0.91C10.75 0.75 9.85 0.83 9.03 1.15C8.21 1.46 7.51 2 7.02 2.68C6.53 3.37 6.26 4.17 6.26 5C6.27 6.1 6.74 7.16 7.58 7.94C8.42 8.72 9.55 9.16 10.74 9.16ZM10.74 2.5C11.27 2.5 11.79 2.64 12.23 2.92C12.68 3.19 13.02 3.58 13.22 4.04C13.43 4.5 13.48 5 13.38 5.48C13.27 5.97 13.02 6.41 12.64 6.76C12.27 7.11 11.79 7.35 11.27 7.45C10.74 7.54 10.2 7.49 9.71 7.3C9.22 7.12 8.8 6.79 8.51 6.38C8.21 5.97 8.06 5.49 8.06 5C8.06 4.33 8.34 3.7 8.84 3.23C9.35 2.76 10.03 2.5 10.74 2.5ZM2.68 18.33L2.68 15C2.68 13.89 3.16 12.83 4 12.05C4.83 11.27 5.97 10.83 7.16 10.83L14.32 10.83C15.51 10.83 16.65 11.27 17.49 12.05C18.33 12.83 18.8 13.89 18.8 15L18.8 18.33C18.8 18.55 18.71 18.76 18.54 18.92C18.37 19.07 18.14 19.16 17.91 19.16C17.67 19.16 17.44 19.07 17.27 18.92C17.1 18.76 17.01 18.55 17.01 18.33L17.01 15C17.01 14.33 16.73 13.7 16.22 13.23C15.72 12.76 15.04 12.5 14.32 12.5L7.16 12.5C6.45 12.5 5.76 12.76 5.26 13.23C4.76 13.7 4.47 14.33 4.47 15L4.47 18.33C4.47 18.55 4.38 18.76 4.21 18.92C4.04 19.07 3.81 19.16 3.58 19.16C3.34 19.16 3.11 19.07 2.94 18.92C2.78 18.76 2.68 18.55 2.68 18.33Z" fill="#FFFFFF" fill-opacity="1.000000" fill-rule="nonzero"/>
	</g>
</svg>
