<svg width="20.551758" height="20.000000" viewBox="0 0 20.5518 20" fill="none" xmlns="http://www.w3.org/2000/svg" xmlns:xlink="http://www.w3.org/1999/xlink">
	<desc>
			Created with Pixso.
	</desc>
	<defs>
		<clipPath id="clip7_3829">
			<rect width="20.551876" height="20.000000" fill="white" fill-opacity="0"/>
		</clipPath>
	</defs>
	<rect width="20.551876" height="20.000000" fill="#FFFFFF" fill-opacity="0"/>
	<g clip-path="url(#clip7_3829)">
		<path d="M15.41 17.5C15.41 16.57 16.18 15.83 17.12 15.83C18.07 15.83 18.83 16.57 18.83 17.5C18.83 18.41 18.07 19.16 17.12 19.16C16.18 19.16 15.41 18.41 15.41 17.5Z" fill="#FFFFFF" fill-opacity="1.000000" fill-rule="evenodd"/>
		<path d="M5.99 17.5C5.99 16.57 6.76 15.83 7.7 15.83C8.65 15.83 9.41 16.57 9.41 17.5C9.41 18.41 8.65 19.16 7.7 19.16C6.76 19.16 5.99 18.41 5.99 17.5Z" fill="#FFFFFF" fill-opacity="1.000000" fill-rule="evenodd"/>
		<path d="M0 0.83C0 0.37 0.38 0 0.85 0L4.28 0C4.68 0 5.04 0.28 5.12 0.66L5.84 4.16L19.69 4.16C19.95 4.16 20.19 4.27 20.35 4.46C20.51 4.66 20.58 4.91 20.53 5.15L19.16 12.15C19.04 12.72 18.72 13.24 18.25 13.61C17.78 13.98 17.2 14.17 16.6 14.16L8.29 14.16C7.69 14.17 7.11 13.98 6.64 13.61C6.17 13.24 5.85 12.72 5.73 12.15L4.3 5.19C4.3 5.17 4.29 5.15 4.29 5.12L3.57 1.66L0.85 1.66C0.38 1.66 0 1.29 0 0.83L0 0.83ZM6.18 5.83L7.41 11.82C7.45 12.02 7.56 12.19 7.71 12.31C7.87 12.43 8.07 12.5 8.27 12.5L8.28 12.5L16.61 12.5L16.62 12.5C16.83 12.5 17.02 12.43 17.18 12.31C17.33 12.19 17.44 12.02 17.48 11.83L18.66 5.83L6.18 5.83Z" fill="#FFFFFF" fill-opacity="1.000000" fill-rule="evenodd"/>
	</g>
</svg>
